<svg width="492" height="690" viewBox="0 0 492 690" fill="none" xmlns="http://www.w3.org/2000/svg">
<path d="M119.39 479.557C119.39 481.741 118.047 483.588 116.032 484.26C113.345 485.1 109.987 485.772 105.789 485.604C102.934 485.436 100.415 484.932 98.4002 484.26C96.3852 483.588 95.0419 481.741 95.0419 479.557V460.075C95.0419 457.892 96.5532 455.876 98.7361 455.205C100.919 454.533 103.606 454.029 106.796 454.029C110.322 454.029 113.513 454.533 116.032 455.205C118.215 455.876 119.726 457.724 119.726 460.075V479.557H119.39Z" fill="#01256F"/>
<path d="M115.36 458.228C115.36 458.899 114.856 459.571 114.352 459.739C112.673 460.243 110.49 460.747 107.804 460.915C104.613 460.915 101.926 460.411 100.079 459.739C99.4077 459.571 98.9039 458.899 98.9039 458.228V238.212H115.36V458.228Z" fill="#7E79A1"/>
<path d="M396.791 479.557C396.791 481.741 395.447 483.588 393.432 484.26C390.746 485.1 387.387 485.772 383.189 485.604C380.335 485.436 377.816 484.932 375.801 484.26C373.786 483.588 372.443 481.741 372.443 479.557V460.075C372.443 457.892 373.954 455.876 376.137 455.205C378.32 454.533 381.006 454.029 384.197 454.029C387.723 454.029 390.914 454.533 393.432 455.205C395.615 455.876 397.127 457.724 397.127 460.075V479.557H396.791Z" fill="#01256F"/>
<path d="M392.761 458.228C392.761 458.899 392.257 459.571 391.753 459.739C390.074 460.243 387.891 460.747 385.204 460.915C382.014 460.915 379.327 460.411 377.48 459.739C376.808 459.571 376.305 458.899 376.305 458.228V238.212H392.761V458.228Z" fill="#7E79A1"/>
<path opacity="0.21" d="M115.36 238.212H98.7362V370.725L115.36 369.55V238.212Z" fill="#7E79A1"/>
<path opacity="0.21" d="M392.761 238.212H376.305V351.747L392.761 350.571V238.212Z" fill="#7E79A1"/>
<path d="M132.152 435.89C132.152 442.105 128.457 447.143 123.756 447.143C119.222 447.143 115.36 442.105 115.36 435.89C115.36 429.676 119.054 424.638 123.756 424.638C128.457 424.47 132.152 429.508 132.152 435.89Z" fill="#01256F"/>
<path d="M243.313 433.707C243.313 439.921 239.619 444.96 234.917 444.96C230.384 444.96 226.521 439.921 226.521 433.707C226.521 427.493 230.216 422.454 234.917 422.454C239.619 422.454 243.313 427.493 243.313 433.707Z" fill="#01256F"/>
<path d="M210.402 454.869C210.402 461.083 206.707 466.122 202.006 466.122C197.472 466.122 193.61 461.083 193.61 454.869C193.61 448.655 197.304 443.616 202.006 443.616C206.707 443.448 210.402 448.487 210.402 454.869Z" fill="#01256F"/>
<path d="M169.598 417.08C169.598 420.943 167.247 424.134 164.392 424.134C161.538 424.134 159.187 420.943 159.187 417.08C159.187 413.217 161.538 410.026 164.392 410.026C167.247 410.026 169.598 413.217 169.598 417.08Z" fill="#01256F"/>
<path d="M232.735 299.682C232.735 296.155 229.88 293.132 226.186 293.132H188.068V264.581C205.868 261.557 247.008 250.809 243.313 214.363C238.612 167.841 227.529 117.624 174.467 117.624C111.162 117.624 118.886 166.329 117.207 214.363C116.032 250.137 152.47 261.054 170.941 264.413V293.132H134.335C130.808 293.132 127.786 295.987 127.786 299.682C127.786 302.705 128.961 305.393 130.976 307.408H229.544C231.559 305.393 232.735 302.705 232.735 299.682Z" fill="#381905"/>
<path d="M131.144 307.408H229.544C227.529 309.423 224.675 310.767 221.652 310.767H207.379C206.372 313.958 200.662 328.737 184.038 330.585V421.11H188.74V427.828H173.46V421.11H176.482V330.585C159.522 328.57 151.798 313.958 150.287 310.767H138.869C135.846 310.599 133.159 309.423 131.144 307.408Z" fill="#7E79A1"/>
<path d="M123.588 429.004C121.573 428.836 120.23 426.989 120.398 424.974C120.566 424.134 120.566 423.294 120.734 422.958C121.405 421.614 145.417 420.943 171.781 420.607C203.013 420.271 237.269 420.439 238.276 420.775C238.612 420.943 238.612 421.279 238.444 421.95C237.772 425.645 234.414 428.333 230.72 428.333C209.394 429.004 140.716 430.516 123.588 429.004Z" fill="#7E79A1"/>
<path d="M165.231 413.889L199.487 450.67C200.998 452.35 203.349 452.686 205.196 451.51C207.883 449.998 208.218 446.303 206.035 444.12L169.261 410.026C168.59 409.354 167.414 409.018 166.575 409.354C164.56 410.026 163.888 412.377 165.231 413.889Z" fill="#7E79A1"/>
<path opacity="0.21" d="M207.379 310.599C206.372 313.79 200.663 328.57 184.039 330.417V350.907C181.52 349.227 179.001 347.716 176.482 346.036V330.585C159.523 328.57 151.798 313.958 150.287 310.767H138.869C135.846 310.767 132.992 309.423 130.977 307.408H229.544C227.529 309.423 224.675 310.767 221.652 310.767H207.379V310.599Z" fill="#7E79A1"/>
<path d="M205.028 18.5327C211.913 48.26 227.193 72.6129 224.171 81.8502C221.148 91.0875 130.976 92.2632 130.976 92.2632C130.976 92.2632 140.212 50.7793 144.242 24.7469" fill="#381905"/>
<path d="M234.917 88.2321C228.704 80.3385 221.148 85.5449 148.607 83.8654C139.54 83.6975 125.603 83.1936 122.58 89.9117C118.886 97.9733 134.334 110.234 131.144 127.365C130.808 129.38 130.304 130.892 129.968 134.083C129.129 144.328 132.655 152.053 133.663 154.573C139.036 168.009 137.021 184.636 134.334 207.141C131.983 226.96 128.121 233.342 132.487 237.54C137.189 242.075 144.577 236.869 166.407 237.54C179.504 237.876 177.825 239.052 184.71 239.22C216.95 239.724 223.835 217.05 223.835 217.05C223.835 217.05 218.461 178.086 219.301 170.024C220.308 161.795 240.962 95.9579 234.917 88.2321Z" fill="#105F9A"/>
<path d="M223.835 217.051C225.85 223.601 227.865 230.99 229.209 238.884C233.574 262.565 230.384 288.598 222.324 300.858C214.432 285.742 192.267 285.574 167.079 285.91C145.921 286.246 134.503 302.034 134.503 302.034C128.29 275.329 131.144 233.174 132.992 219.738C165.064 238.716 224.507 222.761 223.835 217.051Z" fill="#105F9A"/>
<path d="M219.301 233.677C214.767 231.662 208.386 248.793 206.539 252.152C202.173 260.381 197.807 268.779 193.609 277.177C187.061 290.109 180.344 303.209 175.474 316.813C168.758 335.455 199.487 338.647 203.517 329.241C209.058 315.973 220.308 306.904 224.674 292.796C230.216 274.993 229.376 255.175 222.323 238.044C221.652 236.532 220.98 235.021 219.637 234.013C219.469 233.845 219.301 233.677 219.301 233.677Z" fill="#FF8B6A"/>
<path d="M208.89 353.09C207.546 336.799 203.852 321.515 199.15 315.133C194.952 309.423 177.993 309.087 176.649 317.652C172.116 336.463 186.557 418.591 186.892 435.218C187.06 443.448 185.549 446.303 191.594 447.814C197.639 449.494 201.837 445.967 201.837 445.967C204.86 441.768 203.348 436.058 204.02 429.508C204.356 422.958 210.233 369.381 208.89 353.09Z" fill="#FF8B6A"/>
<path d="M206.035 463.434C203.684 477.71 196.296 487.787 189.243 487.283C177.993 486.443 181.015 471.16 183.198 456.884C185.549 442.608 190.419 434.546 197.471 435.722C204.356 436.73 208.218 449.158 206.035 463.434Z" fill="#381905"/>
<path d="M186.557 439.249C186.389 448.822 183.534 460.579 183.534 464.274C183.534 472.503 198.479 474.015 202.845 464.442C204.188 461.418 205.364 447.982 203.348 437.401C201.333 426.821 186.557 439.249 186.557 439.249Z" fill="#FF8B6A"/>
<path d="M150.622 244.258C154.652 245.602 158.347 248.457 161.537 251.48C168.254 258.03 172.284 264.413 172.116 273.65C171.948 284.735 173.291 296.155 173.627 307.408C174.299 324.707 175.138 342.342 173.627 359.641C171.78 380.635 140.547 361.656 140.883 350.739C141.387 338.983 136.853 325.715 134.502 314.126C132.655 305.057 130.136 295.819 130.136 286.582C130.136 278.017 127.114 269.451 128.457 260.886C129.633 252.656 135.51 244.594 143.738 243.587C146.089 243.251 148.439 243.587 150.622 244.258Z" fill="#FF8B6A"/>
<path d="M139.372 375.428C138.701 357.961 140.716 341.166 145.081 333.776C148.944 327.226 166.743 324.707 169.43 333.608C176.65 352.922 171.445 442.104 173.124 459.907C173.963 468.808 175.978 471.496 169.765 473.847C163.385 476.366 158.683 473.175 158.683 473.175C154.989 469.144 155.828 462.762 154.317 455.876C152.974 449.326 140.044 393.063 139.372 375.428Z" fill="#FF8B6A"/>
<path d="M156.332 492.322C160.53 507.269 169.598 517.01 176.986 515.499C188.908 513.148 183.703 497.192 179.505 482.413C175.307 467.465 169.094 459.571 161.705 461.587C154.653 463.77 152.134 477.542 156.332 492.322Z" fill="#381905"/>
<path d="M173.963 464.442C175.307 474.687 179.84 486.611 180.344 490.642C181.352 499.375 165.735 502.735 159.858 493.161C158.011 490.138 155.157 476.03 155.996 464.442C156.668 453.021 173.963 464.442 173.963 464.442Z" fill="#FF8B6A"/>
<path d="M129.129 286.414C129.129 293.804 130.641 301.026 132.152 308.08C132.656 310.095 132.991 312.111 133.495 314.294C134.167 317.485 135.006 320.844 135.846 324.371C137.693 332.265 139.708 340.662 139.876 348.052C138.701 355.778 138.197 365.519 138.533 375.596C138.869 387.017 144.578 415.065 148.776 435.051C157.172 436.226 165.568 435.89 174.131 434.715C174.131 430.852 174.299 426.989 174.299 422.79C174.635 403.308 174.971 381.138 174.131 363.168C174.467 362.16 174.635 361.152 174.803 359.977C176.146 344.357 175.643 328.402 174.971 312.783L174.803 307.576C174.635 303.377 174.299 299.178 174.131 294.98C173.628 288.094 173.124 280.872 173.292 273.986C173.46 263.573 168.254 256.687 162.377 250.977C158.683 247.282 154.821 244.762 151.127 243.587C148.608 242.747 146.257 242.411 143.906 242.747C134.839 243.755 128.793 252.656 127.618 260.886C126.946 266.092 127.618 271.131 128.29 276.169C128.626 279.36 129.129 282.887 129.129 286.414Z" fill="#381905"/>
<path d="M234.918 88.2322C245.832 101.5 265.647 191.522 249.023 196.561C232.399 201.599 222.156 124.51 217.454 105.867C212.92 87.0566 228.033 79.8347 234.918 88.2322Z" fill="#105F9A"/>
<path d="M217.286 151.885C219.469 152.557 221.988 151.381 223.331 149.534C224.674 147.686 225.01 145.335 225.346 142.984C226.186 134.754 225.178 125.853 219.469 119.807C218.293 118.631 216.95 117.455 215.271 117.623C213.256 117.791 211.913 119.807 211.073 121.654C207.211 130.387 208.722 141.304 214.935 148.526" fill="#105F9A"/>
<path d="M128.29 86.8884C136.518 87.2243 141.555 103.683 137.357 117.959C137.021 120.311 115.36 173.047 110.322 187.659C107.971 194.545 100.247 198.072 93.3625 195.217C87.4854 192.697 84.6308 185.811 86.6458 179.597C91.5154 163.474 105.453 85.8807 128.29 86.8884Z" fill="#105F9A"/>
<path d="M156.332 90.0793C156.499 93.9421 166.239 104.355 177.825 104.019C189.411 103.683 198.647 92.7665 198.479 88.9036C198.311 85.0407 188.74 82.1856 177.153 82.5215C165.567 83.0253 156.164 86.3843 156.332 90.0793Z" fill="#FF8B6A"/>
<path d="M168.915 97.3993L186.204 96.9014L185.368 67.8575L168.079 68.3554L168.915 97.3993Z" fill="#FF8B6A"/>
<path d="M168.254 73.7879L168.086 65.7263L185.382 65.2224L185.718 77.8187C179.673 77.6508 173.964 76.1392 168.254 73.7879Z" fill="#381905"/>
<path d="M176.65 7.27971C194.785 6.77586 201.669 21.7235 202.173 39.6942C202.677 56.6573 191.93 71.269 178.497 71.7729C164.224 72.1088 153.477 58.1688 152.973 41.2058C152.469 23.0671 158.514 7.78356 176.65 7.27971Z" fill="#FF8B6A"/>
<path d="M149.447 45.7398C151.966 45.7398 150.119 32.3038 159.858 22.7306C169.933 12.8215 183.871 15.3407 184.374 10.6381C184.71 6.94318 176.482 2.0726 168.758 1.7367C156.836 1.23284 149.447 11.6458 148.776 12.4856C139.372 25.9216 146.257 45.5719 149.447 45.7398Z" fill="#381905"/>
<path d="M202.174 41.8774C201.166 41.7094 202.845 34.8234 199.823 25.4182C198.815 22.3951 197.976 19.7079 195.625 17.1886C192.602 13.8296 190.083 13.6616 184.542 10.6385C182.191 9.46287 172.452 4.08844 173.124 1.90508C173.795 -0.61418 188.908 -1.95779 198.311 6.60771C205.7 13.3257 206.036 23.2348 206.204 26.4259C206.372 34.8235 203.181 42.0453 202.174 41.8774Z" fill="#381905"/>
<path d="M157.508 45.9086C159.859 49.6035 160.698 48.092 158.011 49.7715C155.325 51.451 151.127 49.9394 148.944 46.2445C146.593 42.5496 147.097 38.3508 149.783 36.5034C152.638 34.9918 155.325 42.3817 157.508 45.9086Z" fill="#FF8B6A"/>
<path d="M197.304 44.9004C195.289 48.5953 196.129 47.0838 198.983 48.7633C201.838 50.2748 205.868 48.5953 207.883 44.7324C209.898 41.0375 209.226 36.6708 206.372 35.1592C203.517 33.4797 199.319 41.0375 197.304 44.9004Z" fill="#FF8B6A"/>
<path d="M148.607 35.4953C151.63 36.671 154.149 39.5261 154.988 42.7172C155.66 45.7403 155.156 49.0993 156.332 51.9545C157.003 49.6032 157.171 47.2519 157.171 44.7326C157.339 36.8389 157.675 29.1132 157.843 21.2195" fill="#381905"/>
<path d="M204.02 32.9766C202.005 38.6869 200.158 44.3972 198.143 50.1076C198.647 38.183 198.983 25.7547 194.785 14.6699C198.983 18.0289 202.173 22.7316 203.181 28.106" fill="#381905"/>
<path d="M151.294 42.7175C152.301 42.8855 152.973 43.7252 152.973 44.7329C152.637 44.565 152.134 44.7329 151.966 45.0688C151.798 45.4047 151.966 45.9086 152.301 46.0765" stroke="#381905" stroke-width="0.7095" stroke-miterlimit="10" stroke-linecap="round" stroke-linejoin="round"/>
<path d="M204.525 40.8699C203.685 41.3737 202.846 42.2135 202.51 43.2212C202.846 43.0532 203.349 43.3891 203.517 43.725C203.685 44.0609 203.349 44.5648 202.846 44.7327" stroke="#381905" stroke-width="0.7095" stroke-miterlimit="10" stroke-linecap="round" stroke-linejoin="round"/>
<path d="M178.665 45.0684C178.665 46.5799 178.665 47.9235 178.665 49.4351C179.337 49.0992 180.008 48.7633 180.848 48.2594C181.184 48.0915 181.352 47.9235 181.688 48.0915C182.191 48.2594 182.359 48.9312 182.191 49.4351C181.855 50.7787 180.68 51.9543 179.337 52.1223" stroke="#381905" stroke-width="0.7095" stroke-miterlimit="10" stroke-linecap="round" stroke-linejoin="round"/>
<path d="M197.64 41.8774C197.472 42.0454 196.801 41.8774 195.289 41.5415C192.435 40.8697 188.405 39.1902 188.573 38.1825C188.741 37.5107 190.252 37.3427 190.588 37.3427C194.45 37.1748 197.976 41.2056 197.64 41.8774Z" fill="#381905"/>
<path d="M159.019 40.7019C159.187 40.8699 159.859 40.7019 161.202 40.366C164.057 39.5263 167.919 37.6788 167.583 36.6711C167.415 35.9993 165.904 35.9993 165.568 35.9993C161.874 35.8313 158.515 40.0301 159.019 40.7019Z" fill="#381905"/>
<path d="M192.434 45.2366C192.434 46.7482 191.763 48.0918 190.923 48.0918C190.083 48.0918 189.244 46.9161 189.244 45.4046C189.244 43.893 189.916 42.5494 190.755 42.5494C191.595 42.3814 192.434 43.725 192.434 45.2366Z" fill="#381905"/>
<path d="M166.407 45.9084C166.407 47.42 165.735 48.7636 164.896 48.7636C164.056 48.7636 163.217 47.5879 163.217 46.0764C163.217 44.5648 163.888 43.2212 164.728 43.2212C165.567 43.2212 166.407 44.3968 166.407 45.9084Z" fill="#381905"/>
<path d="M173.796 59.1767C175.643 58.6728 175.979 57.4972 177.154 57.6651C177.49 57.6651 177.994 58.001 178.33 58.169C178.665 57.8331 179.001 57.6651 179.505 57.4972C180.68 57.3292 181.184 58.3369 183.031 58.8408C184.543 59.1767 185.718 58.6728 185.718 58.8408C185.718 59.0087 184.71 59.5126 183.703 59.8485C183.031 60.0164 182.192 60.1844 181.352 60.1844L181.52 60.3523C181.52 61.1921 180.177 61.8639 178.498 61.8639C176.818 61.8639 175.475 61.36 175.307 60.5203C175.307 60.5203 175.307 60.3523 175.475 60.3523C174.635 60.3523 173.964 60.3523 173.124 60.1844C172.117 60.0164 171.109 59.5126 171.109 59.1767C171.109 59.1767 172.285 59.6805 173.796 59.1767Z" fill="#381905"/>
<path d="M217.118 95.1182C214.432 104.02 218.294 113.425 221.82 122.158C225.178 130.892 227.193 139.289 224.842 150.542" fill="#105F9A"/>
<path d="M217.118 95.1182C214.432 104.02 218.294 113.425 221.82 122.158C225.178 130.892 227.193 139.289 224.842 150.542" stroke="#381905" stroke-width="0.7095" stroke-miterlimit="10" stroke-linecap="round" stroke-linejoin="round"/>
<path d="M137.357 97.4695C140.548 106.203 137.189 115.944 134.335 124.678C132.32 131.06 128.793 136.938 129.801 143.656C130.808 150.206 135.174 157.596 136.518 164.146" stroke="#381905" stroke-width="0.7095" stroke-miterlimit="10" stroke-linecap="round" stroke-linejoin="round"/>
<path d="M176.482 142.48C178.497 144.495 216.111 181.948 235.925 196.392C241.299 200.423 249.023 199.247 253.053 194.041C257.419 188.498 256.411 180.605 250.87 176.406L186.893 132.067L176.482 142.48Z" fill="#FF8B6A"/>
<path d="M168.926 138.281C169.262 138.617 169.598 138.953 169.766 139.289C172.452 142.312 176.315 146.511 180.68 146.847C184.375 147.015 187.397 142.648 189.916 140.632C190.755 139.961 191.259 138.953 191.427 137.777C192.099 135.762 192.099 132.403 192.603 128.708C193.274 122.326 195.121 117.455 191.427 116.951C189.244 116.615 187.061 118.295 185.55 120.982C184.71 120.646 178.162 113.592 177.658 113.424C176.147 112.921 174.467 114.6 173.628 114.936C172.788 115.272 172.62 113.592 170.605 114.768C169.766 115.608 168.926 116.447 168.254 117.455C167.919 118.463 168.254 119.471 168.422 119.807C168.926 120.31 166.407 121.15 165.904 122.662V122.83C165.568 124.509 167.583 125.853 167.751 126.692C167.919 127.028 166.407 128.372 166.239 128.708C164.56 131.899 166.743 135.594 168.926 138.281Z" fill="#FF8B6A"/>
<path d="M181.687 400.453C182.359 405.491 183.031 410.194 183.534 414.728C191.259 415.904 198.815 415.736 206.371 414.393C208.218 395.414 210.905 364.679 209.897 352.923C209.058 343.517 207.547 334.28 205.532 327.058C207.882 322.188 211.073 317.821 214.095 313.454C218.461 307.24 223.163 300.858 225.514 292.964C231.223 274.657 230.383 254.839 223.163 237.372C222.995 237.036 221.484 235.357 219.973 232.838C217.958 229.647 217.79 228.639 217.454 228.471C215.607 227.631 208.386 238.044 187.564 279.528C182.359 287.086 175.474 299.682 174.467 316.309C174.299 320.004 174.299 323.531 174.635 326.722C174.299 344.189 178.497 375.428 181.687 400.453Z" fill="#381905"/>
<path d="M75.0592 629.202C75.0592 632.057 73.2122 634.744 70.3575 635.584C66.8313 636.76 62.1295 637.768 56.5882 637.432C52.7261 637.264 49.3678 636.424 46.5132 635.584C43.8265 634.744 41.9794 632.057 41.9794 629.202V603.002C41.9794 599.979 43.9944 597.291 46.849 596.452C49.8715 595.612 53.3978 594.94 57.5958 594.94C62.4654 594.772 66.6633 595.612 70.0217 596.452C73.0442 597.291 75.0592 599.979 75.0592 603.002V629.202Z" fill="#01256F"/>
<path d="M69.6857 303.377H47.3527V441.937L69.6857 438.578V303.377Z" fill="#7E79A1"/>
<path d="M47.3527 441.937V600.651C47.3527 601.658 48.0243 602.498 48.8639 602.666C51.3827 603.506 54.909 604.346 59.2749 604.178C62.9691 604.01 65.9916 603.338 68.1745 602.666C69.0141 602.33 69.6857 601.49 69.6857 600.651V438.746L47.3527 441.937Z" fill="#7E79A1"/>
<path d="M449.852 629.202C449.852 632.057 448.005 634.745 445.15 635.584C441.624 636.76 436.922 637.768 431.381 637.432C427.519 637.264 424.161 636.424 421.306 635.584C418.619 634.745 416.772 632.057 416.772 629.202V603.002C416.772 599.979 418.787 597.292 421.642 596.452C424.664 595.612 428.191 594.94 432.389 594.94C437.258 594.772 441.456 595.612 444.815 596.452C447.837 597.292 449.852 599.979 449.852 603.002V629.202V629.202Z" fill="#01256F"/>
<path d="M444.479 600.651C444.479 601.658 443.975 602.33 442.968 602.666C440.617 603.338 437.594 604.177 434.068 604.177C429.702 604.345 426.176 603.506 423.657 602.666C422.817 602.33 422.146 601.49 422.146 600.651V303.377H444.479V600.651Z" fill="#7E79A1"/>
<path opacity="0.21" d="M69.6857 303.377H47.3527V441.937L69.6857 438.578V303.377Z" fill="#7E79A1"/>
<path d="M47.3527 441.937V600.651C47.3527 601.658 48.0243 602.498 48.8639 602.666C51.3827 603.506 54.909 604.346 59.2749 604.178C62.9691 604.01 65.9916 603.338 68.1745 602.666C69.0141 602.33 69.6857 601.491 69.6857 600.651V438.746L47.3527 441.937Z" fill="#7E79A1"/>
<path opacity="0.21" d="M444.479 303.377H422.146V386.849L444.479 383.49V303.377Z" fill="#7E79A1"/>
<path d="M422.146 386.849V600.65C422.146 601.658 422.817 602.498 423.657 602.666C426.176 603.506 429.702 604.345 434.068 604.177C437.762 604.009 440.785 603.338 442.968 602.666C443.807 602.33 444.479 601.49 444.479 600.65V383.49L422.146 386.849Z" fill="#7E79A1"/>
<path d="M491.832 334.28H0V311.943C74.7235 304.385 157.507 299.682 247.007 299.682C335.668 299.682 417.612 304.553 492 311.943C491.832 319.332 491.832 326.722 491.832 334.28Z" fill="#C93C31"/>
<path d="M491.832 311.775H0L74.7235 229.479H417.109L491.832 311.775Z" fill="#FE6B5B"/>
<path d="M115.864 286.582L142.563 214.195H273.371L294.193 286.582H115.864Z" fill="#9CD2FF"/>
<path d="M291.338 285.238H118.886L144.074 214.866H271.86L291.338 285.238Z" fill="#FFFFFA"/>
<path d="M127.618 281.208L148.776 217.219H266.822L282.774 281.208H127.618Z" fill="#9CD2FF"/>
<path d="M200.327 222.929C200.327 224.105 198.144 224.945 195.457 224.945C192.938 224.945 190.923 224.105 191.091 222.929C191.259 221.922 193.442 220.914 195.961 220.914C198.48 220.914 200.495 221.754 200.327 222.929Z" fill="#FFFFFA"/>
<path d="M212.249 222.93C212.249 224.105 210.066 224.945 207.547 224.945C205.029 224.945 202.846 224.105 203.014 222.93C203.014 221.922 205.197 220.914 207.715 220.914C210.234 220.914 212.249 221.754 212.249 222.93Z" fill="#FFFFFA"/>
<path d="M224.171 222.93C224.171 224.105 222.156 224.945 219.638 224.945C217.119 224.945 214.936 224.105 214.936 222.93C214.936 221.922 216.951 220.914 219.47 220.914C221.988 220.914 224.171 221.754 224.171 222.93Z" fill="#FFFFFA"/>
<path d="M164.392 222.929C164.392 224.105 162.21 224.945 159.523 224.945C157.004 224.945 154.989 224.105 155.157 222.929C155.325 221.922 157.508 220.914 160.027 220.914C162.545 220.914 164.56 221.754 164.392 222.929Z" fill="#FFFFFA"/>
<path d="M176.314 222.93C176.314 224.105 174.131 224.945 171.613 224.945C169.094 224.945 166.911 224.105 167.079 222.93C167.079 221.922 169.262 220.914 171.781 220.914C174.299 220.914 176.314 221.754 176.314 222.93Z" fill="#FFFFFA"/>
<path d="M188.236 222.93C188.236 224.105 186.221 224.945 183.703 224.945C181.184 224.945 179.001 224.105 179.001 222.93C179.001 221.922 181.016 220.914 183.535 220.914C186.054 220.914 188.236 221.754 188.236 222.93Z" fill="#FFFFFA"/>
<path d="M163.049 228.136C163.049 229.312 160.866 230.151 158.179 230.151C155.66 230.151 153.645 229.312 153.813 228.136C153.981 227.128 156.164 226.12 158.683 226.12C161.201 226.12 163.216 227.128 163.049 228.136Z" fill="#FFFFFA"/>
<path d="M174.971 228.136C174.971 229.311 172.788 230.151 170.269 230.151C167.75 230.151 165.567 229.311 165.735 228.136C165.735 227.128 167.918 226.12 170.437 226.12C172.956 226.12 174.971 227.128 174.971 228.136Z" fill="#FFFFFA"/>
<path d="M186.893 228.136C186.893 229.311 184.878 230.151 182.359 230.151C179.841 230.151 177.658 229.311 177.658 228.136C177.658 227.128 179.673 226.12 182.191 226.12C184.71 226.12 186.893 227.128 186.893 228.136Z" fill="#FFFFFA"/>
<path d="M162.377 233.51C162.377 234.686 160.194 235.525 157.508 235.525C154.989 235.525 152.974 234.686 153.142 233.51C153.31 232.502 155.493 231.495 158.011 231.495C160.53 231.495 162.545 232.502 162.377 233.51Z" fill="#FFFFFA"/>
<path d="M174.3 233.51C174.3 234.686 172.117 235.525 169.598 235.525C167.079 235.525 164.896 234.686 165.064 233.51C165.064 232.502 167.247 231.495 169.766 231.495C172.285 231.495 174.3 232.502 174.3 233.51Z" fill="#FFFFFA"/>
<path d="M186.222 233.51C186.222 234.686 184.207 235.525 181.688 235.525C179.169 235.525 176.986 234.686 176.986 233.51C176.986 232.502 179.001 231.495 181.52 231.495C184.039 231.495 186.054 232.502 186.222 233.51Z" fill="#FFFFFA"/>
<path d="M199.991 227.968C199.823 229.143 197.64 229.983 194.953 229.983C192.267 229.983 190.252 228.975 190.419 227.968C190.587 226.792 192.77 225.952 195.457 225.952C197.976 225.952 199.991 226.792 199.991 227.968Z" fill="#FFFFFA"/>
<path d="M212.081 227.968C212.081 229.143 209.898 229.983 207.212 229.983C204.525 229.983 202.51 228.975 202.51 227.968C202.51 226.792 204.693 225.952 207.379 225.952C210.066 225.952 212.249 226.792 212.081 227.968Z" fill="#FFFFFA"/>
<path d="M207.379 229.311C205.7 229.311 204.357 228.639 204.357 227.967C204.357 227.295 205.868 226.623 207.547 226.623C209.227 226.623 210.57 227.295 210.57 227.967C210.402 228.639 209.059 229.311 207.379 229.311Z" fill="#3B1F93"/>
<path d="M224.339 227.968C224.339 229.143 222.324 229.983 219.638 229.983C216.951 229.983 214.768 228.975 214.768 227.968C214.768 226.792 216.951 225.952 219.47 225.952C222.156 225.952 224.339 226.792 224.339 227.968Z" fill="#FFFFFA"/>
<path d="M199.656 233.174C199.488 234.35 197.305 235.358 194.618 235.358C191.931 235.358 189.748 234.35 189.916 233.174C190.084 231.999 192.267 230.991 194.954 230.991C197.641 231.159 199.656 231.999 199.656 233.174Z" fill="#FFFFFA"/>
<path d="M212.081 233.175C212.081 234.35 209.898 235.358 207.044 235.358C204.357 235.358 202.174 234.35 202.342 233.175C202.342 231.999 204.693 230.991 207.379 230.991C209.898 231.159 212.081 231.999 212.081 233.175Z" fill="#FFFFFA"/>
<path d="M207.212 234.686C205.533 234.686 204.021 234.014 204.189 233.342C204.189 232.502 205.701 231.999 207.38 231.999C209.059 231.999 210.402 232.67 210.402 233.342C210.234 234.014 208.891 234.686 207.212 234.686Z" fill="#3B1F93"/>
<path d="M224.507 233.175C224.507 234.35 222.324 235.358 219.638 235.358C216.951 235.358 214.768 234.35 214.768 233.175C214.768 231.999 216.951 230.991 219.638 230.991C222.324 231.159 224.507 231.999 224.507 233.175Z" fill="#FFFFFA"/>
<path d="M199.152 238.885C198.984 240.228 196.801 241.236 193.946 241.236C191.091 241.236 189.076 240.228 189.244 238.885C189.412 237.709 191.763 236.701 194.45 236.701C197.137 236.701 199.319 237.541 199.152 238.885Z" fill="#FFFFFA"/>
<path d="M211.913 238.885C211.913 240.229 209.562 241.236 206.876 241.236C204.021 241.236 201.838 240.229 202.006 238.885C202.006 237.709 204.357 236.702 207.044 236.702C209.73 236.702 211.913 237.542 211.913 238.885Z" fill="#FFFFFA"/>
<path d="M206.876 240.396C205.029 240.396 203.686 239.724 203.686 238.885C203.686 238.045 205.197 237.373 206.876 237.373C208.555 237.373 210.066 238.045 210.066 238.885C210.234 239.724 208.723 240.396 206.876 240.396Z" fill="#3B1F93"/>
<path d="M211.913 244.931C211.913 246.275 209.562 247.283 206.707 247.283C203.853 247.283 201.67 246.107 201.67 244.931C201.67 243.588 204.021 242.58 206.875 242.58C209.562 242.412 211.913 243.588 211.913 244.931Z" fill="#FFFFFA"/>
<path d="M224.675 238.885C224.675 240.229 222.492 241.236 219.638 241.236C216.783 241.236 214.6 240.229 214.6 238.885C214.6 237.709 216.783 236.702 219.638 236.702C222.492 236.534 224.675 237.542 224.675 238.885Z" fill="#FFFFFA"/>
<path d="M257.923 241.235C255.068 241.235 252.717 240.228 252.549 238.884C252.381 237.709 254.396 236.701 257.083 236.701C259.77 236.701 262.289 237.709 262.456 238.884C262.792 240.06 260.777 241.235 257.923 241.235Z" fill="#FFFFFA"/>
<path d="M259.098 247.282C256.244 247.282 253.725 246.106 253.557 244.93C253.389 243.587 255.404 242.579 258.259 242.579C261.113 242.579 263.632 243.587 263.8 244.93C263.968 246.106 261.953 247.282 259.098 247.282Z" fill="#FFFFFA"/>
<path d="M260.273 253.664C257.251 253.664 254.732 252.488 254.564 251.145C254.396 249.801 256.411 248.625 259.434 248.625C262.288 248.625 264.807 249.801 265.143 251.145C265.311 252.656 263.296 253.664 260.273 253.664Z" fill="#FFFFFA"/>
<path d="M245.161 241.235C242.306 241.235 239.956 240.228 239.788 238.884C239.62 237.709 241.803 236.701 244.489 236.701C247.176 236.701 249.527 237.709 249.695 238.884C250.199 240.06 248.016 241.235 245.161 241.235Z" fill="#FFFFFA"/>
<path d="M246 247.282C243.146 247.282 240.627 246.106 240.627 244.93C240.459 243.587 242.642 242.579 245.497 242.579C248.351 242.579 250.702 243.587 250.87 244.93C251.038 246.106 248.855 247.282 246 247.282Z" fill="#FFFFFA"/>
<path d="M242.474 244.93C242.306 244.091 243.817 243.419 245.496 243.419C247.344 243.419 248.855 244.091 249.023 244.93C249.191 245.77 247.679 246.442 246 246.442C244.153 246.442 242.474 245.77 242.474 244.93Z" fill="#EA3E3C"/>
<path d="M246.839 253.664C243.817 253.664 241.466 252.488 241.298 251.145C241.13 249.801 243.313 248.625 246.168 248.625C249.022 248.625 251.541 249.801 251.709 251.145C252.045 252.656 249.862 253.664 246.839 253.664Z" fill="#FFFFFA"/>
<path d="M232.567 241.235C229.713 241.235 227.53 240.228 227.362 238.884C227.362 237.709 229.545 236.701 232.231 236.701C234.918 236.701 237.269 237.709 237.437 238.884C237.437 240.06 235.254 241.235 232.567 241.235Z" fill="#FFFFFA"/>
<path d="M232.903 247.282C230.048 247.282 227.697 246.106 227.53 244.93C227.53 243.587 229.712 242.579 232.567 242.579C235.422 242.579 237.773 243.587 237.94 244.93C238.108 246.106 235.758 247.282 232.903 247.282Z" fill="#FFFFFA"/>
<path d="M229.544 244.93C229.544 244.091 230.888 243.419 232.735 243.419C234.582 243.419 236.093 244.091 236.093 244.93C236.093 245.77 234.75 246.442 232.903 246.442C231.056 246.442 229.544 245.77 229.544 244.93Z" fill="#EA3E3C"/>
<path d="M233.406 253.664C230.384 253.664 228.033 252.488 228.033 251.145C228.033 249.801 230.216 248.625 233.071 248.625C235.925 248.625 238.444 249.801 238.444 251.145C238.612 252.656 236.429 253.664 233.406 253.664Z" fill="#FFFFFA"/>
<path d="M233.406 260.382C230.384 260.382 228.033 259.206 228.033 257.863C228.033 256.519 230.216 255.343 233.071 255.343C235.925 255.343 238.444 256.519 238.444 257.863C238.612 259.206 236.429 260.382 233.406 260.382Z" fill="#FFFFFA"/>
<path d="M233.406 267.604C230.384 267.604 228.033 266.428 228.033 265.084C228.033 263.741 230.216 262.565 233.071 262.565C235.925 262.565 238.444 263.741 238.444 265.084C238.612 266.428 236.429 267.604 233.406 267.604Z" fill="#FFFFFA"/>
<path d="M233.406 275.498C230.384 275.498 228.033 274.322 228.033 272.978C228.033 271.635 230.216 270.459 233.071 270.459C235.925 270.459 238.444 271.635 238.444 272.978C238.612 274.322 236.429 275.498 233.406 275.498Z" fill="#FFFFFA"/>
<path d="M247.176 260.382C244.154 260.382 241.803 259.206 241.803 257.863C241.803 256.519 243.986 255.343 246.84 255.343C249.695 255.343 252.214 256.519 252.214 257.863C252.382 259.206 250.031 260.382 247.176 260.382Z" fill="#FFFFFA"/>
<path d="M247.847 267.772C244.825 267.772 242.474 266.596 242.474 265.252C242.474 263.909 244.657 262.733 247.512 262.733C250.366 262.733 252.885 263.909 252.885 265.252C253.053 266.596 250.87 267.772 247.847 267.772Z" fill="#FFFFFA"/>
<path d="M248.351 275.498C245.329 275.498 242.978 274.322 242.978 272.978C242.978 271.635 245.161 270.459 248.015 270.459C250.87 270.459 253.389 271.635 253.389 272.978C253.557 274.322 251.374 275.498 248.351 275.498Z" fill="#FFFFFA"/>
<path d="M260.441 260.382C257.419 260.382 255.068 259.206 255.068 257.863C255.068 256.519 257.251 255.343 260.106 255.343C262.96 255.343 265.479 256.519 265.479 257.863C265.647 259.206 263.464 260.382 260.441 260.382Z" fill="#FFFFFA"/>
<path d="M261.281 267.772C258.258 267.772 255.907 266.596 255.907 265.252C255.907 263.909 258.09 262.733 260.945 262.733C263.8 262.733 266.318 263.909 266.318 265.252C266.486 266.596 264.303 267.772 261.281 267.772Z" fill="#FFFFFA"/>
<path d="M262.456 275.498C259.434 275.498 257.083 274.322 257.083 272.978C257.083 271.635 259.266 270.459 262.12 270.459C264.975 270.459 267.494 271.635 267.494 272.978C267.662 274.322 265.311 275.498 262.456 275.498Z" fill="#FFFFFA"/>
<path d="M219.972 247.282C217.117 247.282 214.767 246.106 214.767 244.93C214.767 243.587 217.117 242.579 219.804 242.579C222.491 242.579 224.842 243.587 225.01 244.93C225.01 246.106 222.827 247.282 219.972 247.282Z" fill="#FFFFFA"/>
<path d="M216.615 244.93C216.615 244.09 218.126 243.418 219.805 243.418C221.484 243.418 223.164 244.09 223.164 244.93C223.164 245.769 221.652 246.441 219.973 246.441C218.126 246.441 216.615 245.769 216.615 244.93Z" fill="#EA3E3C"/>
<path d="M219.973 253.664C216.951 253.664 214.6 252.488 214.6 251.145C214.6 249.801 216.951 248.625 219.805 248.625C222.66 248.625 225.011 249.801 225.179 251.145C225.347 252.656 222.996 253.664 219.973 253.664Z" fill="#FFFFFA"/>
<path d="M214.6 271.971C214.6 270.291 217.119 268.947 220.31 268.947C223.5 268.947 226.019 270.291 226.019 271.971C226.019 273.65 223.5 274.994 220.31 274.994C217.119 274.994 214.6 273.65 214.6 271.971Z" fill="#FFFFFA"/>
<path d="M199.823 271.971C199.991 270.291 202.51 268.947 205.701 268.947C208.891 268.947 211.41 270.291 211.242 271.971C211.242 273.65 208.555 274.994 205.365 274.994C202.342 274.994 199.823 273.65 199.823 271.971Z" fill="#FFFFFA"/>
<path d="M185.214 271.971C185.382 270.291 188.069 268.947 191.259 268.947C194.45 268.947 196.801 270.291 196.633 271.971C196.465 273.65 193.778 274.994 190.588 274.994C187.397 274.994 185.046 273.65 185.214 271.971Z" fill="#FFFFFA"/>
<path d="M214.6 264.749C214.6 263.237 217.119 261.894 220.142 261.894C223.164 261.894 225.683 263.069 225.683 264.749C225.683 266.261 223.332 267.604 220.142 267.604C217.119 267.604 214.6 266.261 214.6 264.749Z" fill="#FFFFFA"/>
<path d="M200.327 264.749C200.495 263.237 203.014 261.894 206.036 261.894C209.059 261.894 211.578 263.069 211.578 264.749C211.578 266.261 209.059 267.604 205.868 267.604C202.678 267.604 200.327 266.261 200.327 264.749Z" fill="#FFFFFA"/>
<path d="M206.036 262.901C208.051 262.901 209.563 263.74 209.563 264.748C209.563 265.756 207.883 266.596 205.868 266.596C203.853 266.596 202.342 265.756 202.342 264.748C202.342 263.74 204.021 262.901 206.036 262.901Z" fill="#3B1F93"/>
<path d="M186.054 264.749C186.222 263.237 188.908 261.893 191.931 261.893C194.953 261.893 197.304 263.069 197.304 264.749C197.136 266.26 194.617 267.604 191.427 267.604C188.237 267.604 185.886 266.26 186.054 264.749Z" fill="#FFFFFA"/>
<path d="M214.6 257.695C214.6 256.183 216.951 255.008 219.974 255.008C222.996 255.008 225.347 256.183 225.515 257.695C225.515 259.207 223.164 260.382 220.142 260.382C217.119 260.382 214.6 259.207 214.6 257.695Z" fill="#FFFFFA"/>
<path d="M200.83 257.695C200.998 256.183 203.349 255.008 206.372 255.008C209.394 255.008 211.745 256.183 211.745 257.695C211.745 259.207 209.226 260.382 206.204 260.382C203.181 260.382 200.663 259.207 200.83 257.695Z" fill="#FFFFFA"/>
<path d="M206.204 256.015C208.051 256.015 209.562 256.855 209.562 257.694C209.562 258.702 207.883 259.374 206.036 259.374C204.021 259.374 202.51 258.534 202.678 257.694C202.846 256.855 204.357 256.015 206.204 256.015Z" fill="#3B1F93"/>
<path d="M186.893 257.695C187.061 256.183 189.579 255.008 192.602 255.008C195.624 255.008 197.807 256.183 197.807 257.695C197.64 259.206 195.121 260.382 192.098 260.382C189.076 260.382 186.725 259.206 186.893 257.695Z" fill="#FFFFFA"/>
<path d="M201.167 251.145C201.335 249.801 203.685 248.625 206.54 248.625C209.395 248.625 211.746 249.801 211.746 251.145C211.746 252.488 209.395 253.664 206.372 253.664C203.35 253.664 201.167 252.656 201.167 251.145Z" fill="#FFFFFA"/>
<path d="M206.54 249.465C208.387 249.465 209.899 250.136 209.899 251.144C209.899 251.984 208.387 252.824 206.372 252.824C204.525 252.824 203.014 252.152 203.014 251.144C203.182 250.304 204.693 249.465 206.54 249.465Z" fill="#3B1F93"/>
<path d="M187.734 251.145C187.902 249.801 190.42 248.625 193.275 248.625C196.13 248.625 198.48 249.801 198.312 251.145C198.145 252.488 195.794 253.664 192.771 253.664C189.749 253.664 187.566 252.656 187.734 251.145Z" fill="#FFFFFA"/>
<path d="M153.814 248.625C156.669 248.625 158.684 249.801 158.348 251.145C158.012 252.488 155.325 253.664 152.471 253.664C149.448 253.664 147.433 252.488 147.937 251.145C148.273 249.801 150.959 248.625 153.814 248.625Z" fill="#FFFFFA"/>
<path d="M155.493 242.412C158.348 242.412 160.363 243.419 160.027 244.763C159.691 246.107 157.172 247.114 154.318 247.114C151.463 247.114 149.448 245.939 149.784 244.763C150.12 243.587 152.638 242.412 155.493 242.412Z" fill="#FFFFFA"/>
<path d="M157.004 236.533C159.691 236.533 161.706 237.541 161.37 238.717C161.034 240.06 158.515 241.068 155.829 241.068C152.974 241.068 151.127 240.06 151.463 238.717C151.798 237.541 154.317 236.533 157.004 236.533Z" fill="#FFFFFA"/>
<path d="M166.911 248.625C169.766 248.625 171.948 249.801 171.613 251.145C171.277 252.488 168.758 253.664 165.735 253.664C162.713 253.664 160.698 252.488 161.034 251.145C161.538 249.801 164.056 248.625 166.911 248.625Z" fill="#FFFFFA"/>
<path d="M168.254 242.412C171.108 242.412 173.123 243.419 172.956 244.763C172.788 246.107 170.101 247.114 167.246 247.114C164.392 247.114 162.377 245.939 162.545 244.763C162.881 243.587 165.399 242.412 168.254 242.412Z" fill="#FFFFFA"/>
<path d="M171.109 244.931C170.941 245.77 169.262 246.442 167.415 246.442C165.568 246.442 164.224 245.77 164.392 244.931C164.56 244.091 166.239 243.419 168.086 243.419C169.933 243.251 171.109 243.923 171.109 244.931Z" fill="#EA3E3C"/>
<path d="M169.43 236.533C172.117 236.533 174.132 237.541 173.964 238.717C173.796 240.06 171.277 241.068 168.422 241.068C165.568 241.068 163.553 240.06 163.889 238.717C164.224 237.541 166.743 236.533 169.43 236.533Z" fill="#FFFFFA"/>
<path d="M180.009 248.625C182.864 248.625 185.047 249.801 184.879 251.145C184.711 252.488 182.192 253.664 179.17 253.664C176.147 253.664 173.964 252.488 174.3 251.145C174.636 249.801 177.155 248.625 180.009 248.625Z" fill="#FFFFFA"/>
<path d="M181.016 242.412C183.871 242.412 185.886 243.419 185.718 244.763C185.55 246.107 183.031 247.114 180.176 247.114C177.322 247.114 175.139 245.939 175.475 244.763C175.81 243.587 178.161 242.412 181.016 242.412Z" fill="#FFFFFA"/>
<path d="M183.871 244.931C183.703 245.77 182.192 246.442 180.345 246.442C178.498 246.442 177.155 245.77 177.323 244.931C177.49 244.091 179.002 243.419 180.849 243.419C182.696 243.251 184.039 243.923 183.871 244.931Z" fill="#EA3E3C"/>
<path d="M181.856 236.533C184.543 236.533 186.726 237.541 186.558 238.717C186.39 240.06 184.039 241.068 181.184 241.068C178.33 241.068 176.315 240.06 176.483 238.717C176.819 237.541 179.169 236.533 181.856 236.533Z" fill="#FFFFFA"/>
<path d="M177.155 268.108C180.01 268.108 182.193 269.283 182.025 270.627C181.857 271.97 179.338 273.146 176.315 273.146C173.293 273.146 171.11 271.97 171.446 270.627C171.782 269.283 174.3 268.108 177.155 268.108Z" fill="#FFFFFA"/>
<path d="M178.162 262.061C181.016 262.061 183.031 263.069 182.863 264.412C182.695 265.756 180.177 266.764 177.322 266.764C174.467 266.764 172.284 265.588 172.62 264.412C172.956 263.069 175.307 262.061 178.162 262.061Z" fill="#FFFFFA"/>
<path d="M181.017 264.412C180.849 265.252 179.338 265.924 177.491 265.924C175.643 265.924 174.3 265.252 174.468 264.412C174.636 263.573 176.147 262.901 177.994 262.901C179.841 262.901 181.185 263.573 181.017 264.412Z" fill="#EA3E3C"/>
<path d="M179.002 256.183C181.688 256.183 183.871 257.19 183.704 258.366C183.536 259.71 181.185 260.717 178.33 260.717C175.475 260.717 173.46 259.71 173.628 258.366C173.964 257.19 176.315 256.183 179.002 256.183Z" fill="#FFFFFA"/>
<path d="M162.881 268.275C165.736 268.275 167.919 269.451 167.751 270.794C167.583 272.138 165.064 273.314 162.042 273.314C159.019 273.314 156.836 272.138 157.172 270.794C157.508 269.451 160.027 268.275 162.881 268.275Z" fill="#FFFFFA"/>
<path d="M163.889 262.061C166.743 262.061 168.758 263.069 168.59 264.412C168.422 265.756 165.904 266.764 163.049 266.764C160.194 266.764 158.012 265.588 158.347 264.412C158.515 263.069 161.034 262.061 163.889 262.061Z" fill="#FFFFFA"/>
<path d="M166.743 264.412C166.575 265.252 165.064 265.924 163.217 265.924C161.37 265.924 160.027 265.252 160.195 264.412C160.363 263.573 161.874 262.901 163.721 262.901C165.568 262.901 166.911 263.573 166.743 264.412Z" fill="#EA3E3C"/>
<path d="M164.728 256.183C167.415 256.183 169.598 257.19 169.43 258.366C169.262 259.71 166.911 260.717 164.057 260.717C161.202 260.717 159.187 259.71 159.355 258.366C159.523 257.19 162.042 256.183 164.728 256.183Z" fill="#FFFFFA"/>
<path d="M148.944 267.435C151.799 267.603 153.982 268.947 153.646 270.29C153.31 271.634 150.792 272.642 147.769 272.474C144.914 272.306 142.732 270.962 143.067 269.619C143.403 268.275 146.09 267.267 148.944 267.435Z" fill="#FFFFFA"/>
<path d="M150.287 261.39C153.142 261.558 155.157 262.733 154.821 264.077C154.485 265.42 151.966 266.26 149.112 266.092C146.257 265.924 144.242 264.581 144.578 263.405C145.082 262.061 147.6 261.222 150.287 261.39Z" fill="#FFFFFA"/>
<path d="M153.143 263.909C152.975 264.748 151.295 265.42 149.448 265.252C147.601 265.084 146.258 264.245 146.426 263.405C146.594 262.565 148.273 262.061 150.12 262.061C151.967 262.397 153.31 263.069 153.143 263.909Z" fill="#EA3E3C"/>
<path d="M151.631 255.511C154.318 255.679 156.333 256.855 156.165 258.03C155.829 259.206 153.478 260.214 150.624 259.878C147.769 259.71 145.922 258.534 146.09 257.191C146.426 256.183 148.945 255.343 151.631 255.511Z" fill="#FFFFFA"/>
<path d="M193.778 242.411C196.633 242.411 198.816 243.419 198.648 244.763C198.48 246.106 196.129 247.114 193.275 247.114C190.42 247.114 188.237 245.938 188.405 244.763C188.573 243.587 190.924 242.411 193.778 242.411Z" fill="#FFFFFA"/>
<path d="M196.8 244.93C196.8 245.77 195.121 246.441 193.274 246.441C191.427 246.441 190.084 245.77 190.084 244.93C190.252 244.09 191.763 243.418 193.61 243.418C195.457 243.25 196.968 243.922 196.8 244.93Z" fill="#EA3E3C"/>
<path d="M210.066 244.93C210.066 245.77 208.387 246.441 206.54 246.441C204.693 246.441 203.349 245.77 203.349 244.93C203.517 244.09 205.029 243.418 206.876 243.418C208.723 243.25 210.066 243.922 210.066 244.93Z" fill="#EA3E3C"/>
<path d="M226.857 222.761C226.857 221.753 228.705 220.913 231.223 220.913C233.742 220.913 235.925 221.753 236.093 222.761C236.261 223.936 234.414 224.776 231.727 224.776C229.04 224.776 226.857 223.936 226.857 222.761Z" fill="#FFFFFA"/>
<path d="M238.948 222.761C238.948 221.753 240.795 220.913 243.313 220.913C245.832 220.913 248.015 221.753 248.183 222.761C248.351 223.936 246.504 224.776 243.817 224.776C241.13 224.776 238.948 223.936 238.948 222.761Z" fill="#FFFFFA"/>
<path d="M251.037 222.761C251.037 221.753 252.884 220.913 255.403 220.913C257.922 220.913 260.105 221.753 260.273 222.761C260.441 223.936 258.594 224.776 255.907 224.776C253.22 224.776 251.205 223.936 251.037 222.761Z" fill="#FFFFFA"/>
<path d="M226.857 228.135C226.857 227.127 228.705 226.288 231.223 226.288C233.742 226.288 235.925 227.127 236.093 228.135C236.261 229.311 234.414 230.151 231.727 230.151C229.04 230.151 226.857 229.311 226.857 228.135Z" fill="#FFFFFA"/>
<path d="M238.948 228.135C238.948 227.127 240.962 226.288 243.481 226.288C246 226.288 248.351 227.127 248.687 228.135C248.855 229.311 246.84 230.151 244.153 230.151C241.466 230.151 239.115 229.311 238.948 228.135Z" fill="#FFFFFA"/>
<path d="M251.877 228.135C251.877 227.127 253.724 226.288 256.243 226.288C258.762 226.288 260.945 227.127 261.113 228.135C261.281 229.311 259.434 230.151 256.747 230.151C254.06 230.151 251.877 229.311 251.877 228.135Z" fill="#FFFFFA"/>
<path d="M227.362 233.509C227.362 232.502 229.377 231.662 231.727 231.662C234.078 231.662 236.429 232.502 236.597 233.509C236.765 234.685 234.918 235.525 232.231 235.525C229.544 235.525 227.362 234.517 227.362 233.509Z" fill="#FFFFFA"/>
<path d="M239.787 233.509C239.787 232.502 241.802 231.662 244.153 231.662C246.672 231.662 248.855 232.502 249.023 233.509C249.191 234.685 247.343 235.525 244.657 235.525C242.138 235.525 239.787 234.517 239.787 233.509Z" fill="#FFFFFA"/>
<path d="M252.213 233.509C252.213 232.502 254.228 231.662 256.579 231.662C259.098 231.662 261.281 232.502 261.449 233.509C261.617 234.685 259.769 235.525 257.083 235.525C254.396 235.525 252.213 234.517 252.213 233.509Z" fill="#FFFFFA"/>
<path d="M294.025 286.582H115.864V297.163H294.025V286.582Z" fill="#6CADD8"/>
<path d="M449.349 664.472C455.562 664.472 460.599 657.629 460.599 649.188C460.599 640.747 455.562 633.905 449.349 633.905C443.135 633.905 438.098 640.747 438.098 649.188C438.098 657.629 443.135 664.472 449.349 664.472Z" fill="#01256F"/>
<path d="M298.726 661.616C304.94 661.616 309.977 654.773 309.977 646.332C309.977 637.892 304.94 631.049 298.726 631.049C292.513 631.049 287.476 637.892 287.476 646.332C287.476 654.773 292.513 661.616 298.726 661.616Z" fill="#01256F"/>
<path d="M343.393 690C349.606 690 354.643 683.157 354.643 674.716C354.643 666.275 349.606 659.433 343.393 659.433C337.179 659.433 332.142 666.275 332.142 674.716C332.142 683.157 337.179 690 343.393 690Z" fill="#01256F"/>
<path d="M387.387 623.659C387.387 628.866 390.578 633.064 394.44 633.064C398.302 633.064 401.493 628.866 401.493 623.659C401.493 618.453 398.302 614.254 394.44 614.254C390.578 614.254 387.387 618.453 387.387 623.659Z" fill="#01256F"/>
<path d="M381.678 393.23C354.307 392.726 331.806 393.566 323.41 397.093C296.207 408.514 309.641 442.272 324.921 442.776C330.127 442.944 353.468 447.478 381.678 453.525V393.23Z" fill="#FF8B6A"/>
<path d="M371.603 604.345C372.442 601.49 371.267 584.863 371.267 574.114C372.442 450.166 358.841 430.348 358.841 430.348C354.979 415.4 338.691 393.567 325.257 397.598C306.786 403.308 305.779 418.759 309.137 432.195C309.137 432.363 342.049 560.342 344.736 586.374C346.751 605.857 343.225 607.704 342.217 607.704C344.568 607.704 370.763 607.032 371.603 604.345Z" fill="#FF8B6A"/>
<path d="M376.472 587.215C374.625 584.023 372.61 581 371.267 582.176C369.252 584.191 367.908 587.047 366.061 589.23C361.527 594.1 353.132 593.765 347.422 591.581C343.728 590.238 341.377 593.093 338.859 595.444C336.34 597.795 333.653 600.147 330.966 602.33C327.608 605.185 324.25 608.04 320.723 610.896C320.723 610.896 315.182 614.255 314.51 615.766C314.007 616.774 314.342 621.812 314.846 622.148C315.182 622.652 322.738 625.171 330.631 624.5C338.691 623.828 352.46 619.125 357.665 615.934C361.024 613.919 364.55 612.071 367.908 610.224C372.106 608.04 379.998 605.689 380.67 600.315C381.342 595.948 378.655 591.077 376.472 587.215Z" fill="#381905"/>
<path d="M314.679 615.766C311.992 618.789 312.496 624.331 317.03 625.675C321.564 627.019 343.225 625.675 353.972 620.133C364.719 614.59 385.372 605.017 382.854 597.459L379.831 594.268C379.831 594.268 374.626 608.208 351.621 615.766C328.616 623.156 316.526 621.308 316.862 619.629C317.198 617.949 332.142 620.804 337.348 612.743C342.721 604.849 327.105 601.49 314.679 615.766Z" fill="white"/>
<path d="M380.167 457.724V392.559C352.628 392.055 329.624 393.063 320.892 396.59C309.809 401.293 305.947 409.018 304.604 414.729C303.093 420.271 303.26 426.989 305.108 434.547C305.276 435.723 305.779 437.906 306.955 442.105C322.907 505.422 333.318 549.089 338.02 572.603C338.523 574.954 340.37 576.969 342.721 577.473C346.08 578.313 350.781 578.817 356.155 578.313C361.36 577.641 365.726 576.129 368.749 574.618C370.931 573.61 372.275 571.259 372.275 568.908C372.611 508.277 369.252 473.679 366.062 454.869C370.596 455.709 375.297 456.716 380.167 457.724Z" fill="#105F9A"/>
<path d="M349.102 572.266L326.601 468.305" stroke="#6BA0FE" stroke-width="1.1703" stroke-miterlimit="10" stroke-linecap="round" stroke-linejoin="round"/>
<path d="M335.501 580.664C335.669 582.007 336.676 583.015 338.02 583.183C343.729 583.519 350.278 583.519 357.498 582.847C358.674 582.679 364.383 582.343 374.29 579.992C375.633 579.656 376.473 578.48 376.305 577.137L375.465 568.235C375.297 566.724 373.786 565.548 372.275 565.884C367.069 566.724 361.36 567.564 355.315 568.235C348.934 568.739 342.889 569.075 337.348 569.075C335.837 569.075 334.493 570.419 334.661 572.098L335.501 580.664Z" fill="#6BA0FE"/>
<path d="M422.65 375.428C422.65 375.428 245.833 394.406 221.484 411.201C197.136 427.828 217.119 458.227 232.063 455.54C241.802 453.861 317.198 454.868 369.42 455.708C397.463 456.212 420.635 434.211 421.643 406.331L422.65 375.428Z" fill="#FF8B6A"/>
<path d="M310.145 604.344C310.481 601.321 305.779 585.366 303.764 574.785C280.255 453.021 262.792 436.394 262.792 436.394C255.907 422.454 235.757 404.315 223.331 411.033C206.371 420.438 208.554 435.554 214.432 448.15C214.432 448.318 272.363 567.059 280.255 592.084C286.133 610.727 282.942 613.246 282.103 613.582C284.285 613.078 309.809 607.368 310.145 604.344Z" fill="#FF8B6A"/>
<path d="M312.663 591.748C310.481 588.893 307.794 586.206 306.786 587.717C305.107 590.069 304.268 593.092 302.756 595.611C299.062 601.153 290.666 602.161 284.621 600.817C280.759 599.978 278.912 603.337 276.897 605.856C274.714 608.543 272.531 611.23 270.18 613.918C267.326 617.277 264.471 620.636 261.448 623.995C261.448 623.995 256.411 628.193 256.075 629.705C255.739 630.881 256.915 635.751 257.418 636.087C257.922 636.423 265.814 637.767 273.371 635.919C281.095 634.072 294.025 627.186 298.726 623.323C301.749 620.804 304.771 618.452 307.962 616.101C311.656 613.246 319.212 609.719 319.044 604.344C318.876 599.474 315.35 595.107 312.663 591.748Z" fill="#381905"/>
<path d="M256.075 629.537C253.892 632.896 255.236 638.271 259.938 638.942C264.639 639.614 285.797 634.744 295.536 627.69C305.275 620.636 324.082 607.871 320.556 600.818L317.03 598.13C317.03 598.13 314.175 612.742 292.514 623.827C271.02 634.744 258.762 634.744 258.93 633.064C259.098 631.385 274.211 631.888 278.073 623.155C281.935 614.422 265.983 613.414 256.075 629.537Z" fill="white"/>
<path d="M420.803 374.588C413.582 375.428 242.978 393.902 218.462 410.697C208.554 417.583 206.204 425.981 206.036 431.691C205.7 437.402 207.211 443.952 210.402 451.006C210.905 452.181 211.745 454.029 213.76 458.059C242.138 516.842 261.113 557.654 270.348 579.824C271.356 582.007 273.371 583.687 275.89 583.687C279.416 583.855 283.95 583.519 289.155 581.839C294.193 580.16 298.055 577.808 300.741 575.625C302.589 574.114 303.596 571.762 303.092 569.243C291.338 509.62 281.095 476.534 274.21 458.731C303.26 458.899 340.706 459.403 367.573 459.907C396.623 460.243 421.139 437.234 422.314 408.01C421.81 396.925 421.307 385.673 420.803 374.588Z" fill="#105F9A"/>
<path d="M312.16 434.043C309.138 432.363 238.108 430.012 238.108 430.012C238.108 430.012 274.882 498.536 291.338 576.801" stroke="#6BA0FE" stroke-width="1.1703" stroke-miterlimit="10" stroke-linecap="round" stroke-linejoin="round"/>
<path d="M269.173 584.694C269.509 586.038 270.852 586.71 272.196 586.542C277.737 585.702 284.118 584.359 291.17 582.175C297.215 580.328 302.421 578.144 306.955 575.961C308.13 575.457 308.802 573.946 308.298 572.77L305.779 564.204C305.275 562.693 303.596 561.853 302.253 562.525C297.383 564.54 292.01 566.388 286.133 568.235C280.088 570.083 274.211 571.594 268.837 572.77C267.326 573.106 266.318 574.617 266.822 576.129L269.173 584.694Z" fill="#6BA0FE"/>
<path d="M423.992 406.331C423.489 395.246 422.817 383.993 422.314 372.908" stroke="#381905" stroke-width="1.1703" stroke-miterlimit="10" stroke-linecap="round" stroke-linejoin="round"/>
<path d="M279.416 209.157C271.691 229.815 284.453 347.716 306.786 346.876C312.328 346.709 321.059 345.197 320.723 335.456C319.884 306.904 309.473 241.907 307.794 223.265C305.611 198.576 284.285 196.057 279.416 209.157Z" fill="#FF8B6A"/>
<path d="M204.86 274.49C206.875 269.115 214.599 266.428 215.775 267.268C216.95 268.275 209.058 273.65 212.416 276.001" fill="#FF8B6A"/>
<path d="M221.987 299.682C224.842 301.53 275.889 334.784 301.748 346.372C308.801 349.563 317.197 346.54 320.555 339.654C324.082 332.433 321.059 323.699 313.839 320.34L231.223 285.406L221.987 299.682Z" fill="#FF8B6A"/>
<path d="M212.416 299.514C215.271 300.186 218.293 300.522 220.644 301.026C225.849 302.201 231.391 302.033 233.742 296.659C235.924 292.124 234.581 287.086 232.566 282.719C231.223 279.696 229.879 276.505 226.857 274.825C225.01 273.818 222.659 273.482 220.476 273.986C218.629 274.489 217.118 275.329 215.271 275.161C213.759 274.993 211.912 274.322 210.569 273.818C208.722 273.146 206.035 272.306 204.692 274.657C203.684 276.673 206.371 279.36 205.195 281.375C204.524 282.551 202.845 283.055 202.341 284.399C201.669 286.246 203.852 287.926 204.356 289.605C205.028 291.788 204.02 294.476 205.699 296.323C207.378 298.003 209.729 298.842 212.416 299.514Z" fill="#FF8B6A"/>
<path d="M221.651 277.345C221.651 277.345 217.957 271.634 218.125 270.627C218.293 269.619 225.849 272.138 228.536 275.833" fill="#FF8B6A"/>
<path d="M287.644 257.863C287.476 247.786 296.208 231.662 302.924 219.738L305.443 182.621C305.107 174.391 304.1 166.162 308.466 160.619C316.526 150.038 334.157 152.558 344.904 154.069C351.956 155.077 378.823 159.611 399.141 179.766C422.146 202.607 418.62 227.296 426.344 309.256C434.908 401.125 435.747 411.874 428.695 431.524C422.818 448.151 358.337 444.456 324.754 427.325C302.421 415.904 291.842 399.613 291.506 393.231L299.23 277.849C294.025 274.322 287.98 267.94 287.644 257.863Z" fill="#FDAD34"/>
<path d="M309.473 167.841C273.203 191.186 263.464 226.792 279.584 296.995C279.584 296.995 299.062 304.049 321.563 292.964C321.563 292.964 317.198 199.751 304.939 189.842" fill="#FDAD34"/>
<path d="M302.085 464.946C302.085 460.075 305.947 456.212 310.816 456.212H362.367V417.584C338.187 413.553 282.606 399.109 287.644 349.564C294.025 286.582 311.32 230.99 383.189 230.99C468.827 230.99 458.416 294.98 458.248 349.564C457.913 398.101 410.56 412.881 385.54 417.248V456.212H435.076C439.945 456.212 443.807 460.075 443.807 464.946C443.807 468.977 442.128 472.672 439.61 475.359H306.45C303.596 472.672 302.085 468.977 302.085 464.946Z" fill="#C93C31"/>
<path d="M439.441 475.359H306.282C308.969 478.214 312.831 479.893 316.861 479.893H336.172C337.515 484.26 345.239 504.078 367.74 506.765V629.202H361.527V638.439H382.013V629.202H377.815V506.765C400.82 504.078 411.231 484.26 413.414 479.893H428.695C433.06 479.725 436.755 478.046 439.441 475.359Z" fill="#7E79A1"/>
<path d="M449.685 639.782C452.371 639.614 454.386 637.095 454.05 634.408C453.882 633.232 453.715 632.057 453.547 631.721C452.707 629.873 420.131 628.866 384.532 628.53C342.217 628.026 296.039 628.362 294.528 628.866C294.192 629.034 294.192 629.537 294.36 630.545C295.2 635.584 299.734 639.111 304.771 639.279C333.485 639.95 426.344 641.798 449.685 639.782Z" fill="#7E79A1"/>
<path d="M307.458 98.1411C312.496 86.7204 318.373 77.3151 330.631 71.9407C353.468 62.0316 371.939 78.4908 374.625 100.996C379.663 123.838 391.753 148.694 384.197 171.536C380.838 182.116 375.633 192.026 368.916 200.759C363.207 208.485 353.636 217.386 343.057 216.211C342.049 216.043 340.874 215.707 340.37 214.867C340.202 214.363 340.202 213.859 340.37 213.355C341.042 208.653 342.553 202.942 340.202 198.576C336.508 191.354 328.448 187.491 321.731 183.628C306.115 174.223 295.872 157.092 294.864 138.953C294.025 123.166 301.077 112.417 307.122 98.8129C307.458 98.309 307.458 98.309 307.458 98.1411Z" fill="#381905"/>
<path d="M393.096 619.461L346.919 669.174C344.904 671.358 341.713 671.862 339.026 670.35C335.5 668.167 334.829 663.128 338.019 660.273L387.723 614.087C388.73 613.079 390.074 612.911 391.417 613.247C394.104 614.087 395.111 617.446 393.096 619.461Z" fill="#7E79A1"/>
<path opacity="0.21" d="M336.34 479.726C337.683 484.092 345.408 503.911 367.909 506.598V534.31C371.267 532.126 374.625 529.943 377.984 527.592V506.598C400.988 503.911 411.399 484.092 413.582 479.726H428.863C433.061 479.726 436.755 478.046 439.442 475.191H306.283C308.969 478.046 312.832 479.726 316.862 479.726H336.34Z" fill="#7E79A1"/>
<path d="M386.715 238.044C355.65 237.372 306.954 276.001 306.954 339.99C306.954 403.979 357.162 412.545 380.166 409.858C403.171 407.171 450.188 390.879 449.349 354.77C448.509 318.492 461.607 239.556 386.715 238.044Z" fill="#FE6B5B"/>
<path d="M110.994 237.036C112.002 237.204 112.673 237.708 113.345 238.38C115.024 239.556 116.535 242.075 118.886 244.762C122.412 248.961 126.275 251.984 123.252 253.664C121.405 254.671 118.718 254.335 116.2 252.992C115.528 261.053 113.513 269.115 113.177 269.451C112.169 270.459 109.819 269.787 108.979 269.955C108.139 269.955 108.643 271.298 106.46 271.298C105.285 271.13 104.109 270.795 103.102 270.291C102.262 269.619 102.094 268.947 102.262 268.611C102.43 268.107 99.9114 268.443 98.5681 267.436L98.4002 267.268C97.3927 266.26 98.4002 264.412 98.4002 263.741C98.4002 263.237 95.8814 263.741 94.5381 261.053C93.3627 257.694 93.0268 253.664 94.2022 248.961C97.8964 233.342 102.43 235.693 110.994 237.036Z" fill="#FF8B6A"/>
<path d="M99.072 248.289C98.4003 245.938 87.4857 203.95 86.1423 184.132C85.8065 178.758 90.844 174.055 97.5607 173.551C104.445 173.047 110.658 177.246 111.162 182.788L113.513 245.77L99.072 248.289Z" fill="#FF8B6A"/>
</svg>
